<?xml version="1.0" encoding="utf-8"?>
<!-- Generator: Adobe Illustrator 26.2.1, SVG Export Plug-In . SVG Version: 6.00 Build 0)  -->
<svg version="1.1" id="Camada_1" xmlns="http://www.w3.org/2000/svg" xmlns:xlink="http://www.w3.org/1999/xlink" x="0px" y="0px"
	 viewBox="0 0 512 125.96" style="enable-background:new 0 0 512 125.96;" xml:space="preserve">
<style type="text/css">
	.st0{fill:#FFFFFF;}
</style>
<path class="st0" d="M490.23,47.32c-0.25,0.81-0.68,1.38-0.91,1.67c-0.17,0.22-0.63,0.79-1.41,1.32c-0.82,0.56-1.61,1.1-2.33,0.89
	c-0.53-0.16-0.94-0.76-1.4-1.85c-1-2.37-2.82-3.63-5.39-3.63c-3.58,0-6.55,1.22-8.2,4.65c-0.79,1.64-1.03,3.41-1.01,5.24
	c0.07,7.62,0.09,15.24,0.16,22.86c0.04,4.27,1.69,6.33,5.94,7.44c0.58,0.15,1.29,0.09,1.25,0.92c-0.05,0.92-0.8,0.69-1.36,0.67
	c-6.94-0.24-13.88-0.23-20.81,0c-0.55,0.02-1.34,0.25-1.38-0.66c-0.04-0.81,0.69-0.78,1.27-0.94c4.22-1.16,5.83-3.22,5.8-7.52
	c-0.04-9.16-0.11-18.32-0.19-27.48c-0.03-3.33-0.82-4.3-4.15-5.12c-0.63-0.15-1.53,0.04-1.48-0.98c0.05-1.09,1-0.7,1.58-0.76
	c3.97-0.35,7.76-1.26,11.13-3.52c1.37-0.91,2.2-0.71,2.15,1.19c-0.06,2.17-0.01,4.35,0.2,6.61c2.72-4.5,6.56-7.21,11.6-8.13
	c1.82-0.33,3.54-0.55,5.38,0.33c2.12,1.02,3.09,2.93,3.43,3.69C490.3,44.76,490.65,45.97,490.23,47.32z"/>
<path class="st0" d="M20.77,60.17c0.83,2.57,0.8,5.14,0,7.71C20.77,65.3,20.77,62.74,20.77,60.17z"/>
<path class="st0" d="M217.03,49.41c7.16-3.02,14-5.89,20.83-8.79c2.51-1.06,4.83-0.99,6.91,0.93c1.58,1.47,1.38,3.43,1.27,5.29
	c-0.11,1.85,0.18,2.4,2.16,1.52c5.93-2.64,12.01-4.96,17.92-7.65c4.08-1.86,8.89-0.24,8.74,5.7c-0.27,10.52,0.06,21.06,0.17,31.59
	c0.05,4.63,1.62,6.64,6.09,7.89c0.57,0.16,1.31,0.12,1.27,0.94c-0.04,0.92-0.83,0.67-1.37,0.65c-6.94-0.22-13.88-0.22-20.82-0.01
	c-0.54,0.02-1.3,0.33-1.45-0.56c-0.14-0.82,0.51-0.85,1.12-1.03c4.45-1.3,6.03-3.42,5.99-7.96c-0.09-10.02-0.19-20.03-0.3-30.05
	c-0.04-3.87-1.29-4.67-4.93-3.21c-4.28,1.73-8.53,3.52-12.85,5.16c-1.36,0.52-1.74,1.22-1.71,2.64c0.17,8.82,0.22,17.63,0.34,26.45
	c0.05,3.69,1.98,6,5.63,6.93c0.66,0.17,1.8-0.13,1.61,1.1c-0.16,1.03-1.11,0.53-1.7,0.51c-6.77-0.19-13.53-0.19-20.3,0.01
	c-0.59,0.02-1.53,0.46-1.61-0.63c-0.08-1.03,0.87-0.81,1.48-0.98c3.65-1,5.62-3.48,5.59-7.29c-0.07-10.36-0.19-20.72-0.32-31.08
	c-0.04-3.4-1.36-4.25-4.53-2.97c-4.52,1.83-9.01,3.72-13.54,5.5c-1.21,0.48-1.65,1.1-1.63,2.43c0.12,8.73,0.12,17.46,0.21,26.2
	c0.04,3.89,1.93,6.22,5.67,7.2c0.61,0.16,1.56-0.06,1.5,0.95c-0.06,1.1-1.01,0.68-1.6,0.66c-6.77-0.2-13.53-0.2-20.3,0.01
	c-0.55,0.02-1.34,0.3-1.43-0.59c-0.08-0.83,0.71-0.76,1.27-0.92c4.13-1.21,5.7-3.3,5.67-7.65c-0.05-9.07-0.13-18.15-0.19-27.22
	c-0.03-3.8-0.62-4.57-4.23-5.6c-0.57-0.16-1.53,0.11-1.48-0.98c0.05-1.14,0.98-0.72,1.56-0.76c3.9-0.31,7.57-1.39,10.93-3.39
	c1.72-1.03,2.47-0.78,2.39,1.37C216.96,44.19,217.03,46.65,217.03,49.41z"/>
<path class="st0" d="M89.22,48.32c3.66-5.5,8.49-8.4,14.96-8.29c3.04,0.05,5.08,1.89,5.67,4.64c0.52,2.47-0.57,4.88-2.8,6.05
	c-1.41,0.74-2.48,1.17-3.06-1.15c-0.64-2.56-2.76-3.79-5.43-3.87c-3.37-0.1-6.7,2.09-8.3,4.92c-1,1.76-0.91,3.03-0.98,7.64
	c-0.12,7.46-0.3,1.03-0.04,18.13c0.05,3.25,0.12,5.55,1.69,6.99c0.47,0.43,3.06,2.15,4.56,2.54c0.56,0.15,1.33,0.05,1.31,0.88
	c0,0.12-0.01,0.34-0.17,0.51c-0.15,0.15-0.34,0.16-0.4,0.17l-0.99,0.01l-20.55,0.01c-0.3,0-0.6,0-0.89,0
	c-0.06-0.01-0.25-0.03-0.39-0.18c-0.11-0.12-0.14-0.25-0.16-0.36c-0.16-1.07,0.73-0.89,1.36-1.05c1.78-0.47,4.12-2.36,4.33-2.58
	c2.02-2.16,2-5.12,1.96-5.99c0.16-13.14,0.01-22.87-0.26-26.09c-0.08-1.04-0.27-2.56-1.38-3.67c-0.49-0.5-1.72-1.42-3.25-1.76
	c-0.67-0.15-1.78,0.13-1.66-1.08c0.1-1.01,1.07-0.61,1.67-0.67c3.97-0.37,7.75-1.25,11.12-3.53c1.38-0.94,2.16-0.63,2.1,1.22
	C89.16,43.93,89.22,46.13,89.22,48.32z"/>
<path class="st0" d="M337.72,49.25c2.75-5.13,6.47-7.89,11.38-8.97c4.54-1,7.93,0.4,9.05,3.66c0.87,2.54,0.06,5.07-2.18,6.5
	c-1.56,1-2.85,1.7-3.58-1.07c-0.65-2.46-2.75-3.65-5.31-3.65c-3.47,0-6.39,1.16-8.08,4.42c-0.8,1.54-1.11,3.22-1.1,4.96
	c0.06,7.96,0.09,15.92,0.18,23.88c0.04,3.72,1.95,5.99,5.64,6.9c0.6,0.15,1.55-0.12,1.52,0.92c-0.03,1.14-0.98,0.7-1.56,0.68
	c-6.77-0.2-13.53-0.2-20.3,0c-0.59,0.02-1.52,0.47-1.69-0.55c-0.17-1.03,0.79-0.87,1.41-1.03c3.93-1.04,5.68-3.29,5.66-7.4
	c-0.05-9.24-0.13-18.49-0.23-27.73c-0.03-3.17-0.89-4.19-4.03-4.96c-0.7-0.17-1.78,0.06-1.63-1.11c0.13-0.95,1.1-0.59,1.7-0.64
	c3.98-0.35,7.74-1.29,11.11-3.56c1.22-0.82,2.08-0.69,2.04,1.1C337.69,43.87,337.72,46.16,337.72,49.25z"/>
<path class="st0" d="M388.59,38.6c1.47,5.15,2.94,10.3,4.44,15.58c-1.32-0.18-1.39-1.22-1.83-1.87c-2.75-4.17-5.77-8.07-10.08-10.78
	c-3.81-2.4-7.76-2.53-11.71-0.55c-5.28,2.65-5.78,9.07-1.05,12.59c2.3,1.71,5.01,2.57,7.67,3.48c3.48,1.2,6.94,2.42,10.24,4.07
	c7.18,3.59,10.13,8.79,8.89,15.58c-1.18,6.45-7.23,11.58-14.38,12.29c-4.62,0.46-9.01-0.73-13.43-1.71c-1.77-0.39-3.25-0.5-3.52,2.1
	c-1.44-2.88-1.69-5.83-2.41-8.64c-0.74-2.87-1.31-5.79-1.98-8.85c1.03,0.19,1.07,0.92,1.37,1.45c2.46,4.45,5.35,8.56,9.49,11.64
	c4.98,3.7,10.28,4.03,15.66,1.1c5.71-3.11,5.93-9.93,0.53-13.54c-4.01-2.68-8.57-4.23-12.94-6.18c-2.97-1.33-5.94-2.64-8.49-4.71
	c-6.2-5.02-6.53-13.07-0.77-18.57c4.72-4.5,10.3-5.39,16.44-3.86c1.58,0.39,3.17,0.72,4.73,1.18
	C387.06,40.87,388.29,40.9,388.59,38.6z"/>
<path class="st0" d="M404.95,83.8c-0.03,2.17-1.77,3.82-3.96,3.75c-2.15-0.07-3.86-1.84-3.82-3.96c0.04-2.06,1.93-3.87,3.99-3.82
	C403.23,79.84,404.98,81.7,404.95,83.8z"/>
<path class="st0" d="M448.08,87.29c-2.02-1.33-4.22-2.25-6.48-3.05c-5.73-2.04-11.69-3.28-17.5-5.01c-2.13-0.63-4.3-1.19-6.23-2.32
	c-0.77-0.45-1.99-1.15-1.17-2.12c1.06-1.26,2.15-2.83,4.44-1.9c3.4,1.37,7.01,1.52,10.63,1.11c10.79-1.21,17.72-9.41,16.32-19.38
	c-0.78-5.56-4.04-9.44-9.01-12.36c3.62-1.02,6.69,0.19,9.82,0.89c1.15,0.26,2.6,1.25,3.43-0.39c0.73-1.46,0.02-2.84-0.92-4.01
	c-0.83-1.03-1.98-1.63-3.25-1.96c-4.09-1.04-7.66,0.14-10.66,2.88c-1.18,1.08-2.14,1.19-3.58,0.83c-5.91-1.49-11.59-0.75-16.84,2.33
	c-7.22,4.24-9.69,12.43-7.25,19.38c1.43,4.07,4.5,6.63,6.21,8.1c0.79,0.68,1.5,1.2,2.01,1.55c-2.71,1.04-4.87,1.96-6.43,2.65
	c-0.6,0.27-1.34,0.6-2.05,1.32c-0.97,0.98-1.5,2.28-1.73,3.75c-0.35,2.29,1.19,3.63,2.9,4.72c1.89,1.21,3.98,1.96,6.12,2.6
	c1.46,0.44,2.94,0.86,4.88,1.43c-3.79,0.59-8.73,2.07-12.84,5.81c-2.38,2.17-2.79,3.55-2.92,4.15c-1.05,4.76,4.45,9.33,5.23,9.96
	c2.01,1.62,4.06,2.4,5.35,2.9c2.17,0.83,3.92,1.11,5.81,1.42c0.47,0.08,3.82,0.63,7.43,0.55c4.93-0.1,13.15-0.27,19.08-5.97
	c1.55-1.48,5.16-4.97,5.05-9.95C453.83,93.46,451.86,89.78,448.08,87.29z M420.12,47.18c0.93-3.96,3.76-5.83,7.93-5.97
	c4.47-0.15,7.38,1.65,8.84,5.54c1.31,3.51,1.26,7.21,1.33,9.86c0.04,4.1-0.04,7.18-0.94,10.16c-1.23,4.05-4.05,6.07-8.42,6.11
	c-4.38,0.04-7.46-1.87-8.54-5.92C418.57,60.43,418.57,53.75,420.12,47.18z M440.9,109.44c-1.9,0.56-3.42,0.81-4.76,1.03
	c-1.97,0.33-3.9,0.65-6.4,0.59c-1.68-0.04-3.47-0.08-5.66-0.79c-1.69-0.55-4.41-1.42-6.28-4c-1.52-2.09-1.73-4.28-1.8-5.19
	c-0.39-5.11,2.12-9.73,6.3-11.65c0.88-0.4,1.73-0.68,2.71-0.45c6.15,1.45,12.41,2.47,18.41,4.54c2.03,0.7,4.01,1.51,5.75,2.77
	c3.38,2.44,3.63,5.47,0.69,8.42C447.38,107.21,444.2,108.47,440.9,109.44z"/>
<path class="st0" d="M70.69,85.88c-1.23-0.44-3.51-1.86-3.68-1.99c-0.77-0.55-1.66-1.65-2.01-4.05c0.23-21.58,0.39-43.16,0.49-64.74
	c0-0.33,0.01-2.39,0.01-2.71c-0.51,0-1.03,0-1.54,0c-2.97,3.22-7.04,3.37-10.97,3.97c-0.73,0.11-2.01-0.54-2.08,0.75
	c-0.05,0.98,1.14,0.76,1.84,0.95c2.85,0.77,3.77,1.92,3.8,4.91c0.07,5.38,0.11,10.76,0.14,16.15c0.02,3.19,0,6.38,0,9.86
	c-1.32-1.47-2.33-2.71-3.47-3.83c-4.46-4.41-9.72-6.27-15.92-4.62c-0.31,0.08-4.15,1.03-7.69,3.74c-3.02,2.31-8.7,9.58-9.17,19.69
	c-0.17,3.57-0.55,11.69,5.43,18.1c0.9,0.97,6.09,6.34,14.01,6.48c0,0,8.43,0.15,15.72-7.04c0.46-0.45,0.94-0.95,0.94-0.95
	c0.22-0.22,0.4-0.42,0.54-0.56c0,1.47-0.03,2.88,0.01,4.29c0.05,1.9,1.17,3.09,2.93,3.18c3.5,0.17,7.01,0.05,10.52,0.04
	c0.5,0,1.09,0.12,1.11-0.65C71.67,86.2,71.22,86.07,70.69,85.88z M47.15,85.79c-1.48,0.65-6.03,2.66-9.8,0.57
	c-2.12-1.18-3.23-3.16-4-4.85c-1.17-2.6-1.77-5.36-2.02-8.17c-0.69-7.68-1.1-15.39,0.74-22.97c1.02-4.22,3.18-7.05,6.03-8.34
	c4.66-2.1,10.15,0.95,10.66,1.24c1.48,0.84,2.45,1.77,3.22,2.52c2.67,2.58,4.08,5.36,4.82,7.16c0.05,3.76,0.1,7.53,0.15,11.29
	c0,3.17,0,6.33,0,9.5C56.45,75.42,54.06,82.73,47.15,85.79z"/>
<path class="st0" d="M197.62,85.86c-3.09-0.95-4-2.15-4.03-5.37c-0.06-6.25-0.1-12.49-0.13-18.74c-0.01-3.08-0.02-6.16-0.45-9.22
	c-0.66-4.69-2.18-9.1-7-10.84c-8.09-2.92-16.17-2.42-23.84,1.61c-2.86,1.51-4.53,4.11-5.06,7.35c-0.14,0.83-0.31,1.61,0.98,1.93
	c3.76,0.94,7.16,2.71,10.44,5.04c0.72-1.15,0.07-1.88-0.2-2.66c-0.64-1.87-1.14-3.75-1.16-5.75c-0.04-4.96,2.72-7.61,8.35-7.98
	c5.21-0.34,7.52,1.51,8.2,6.6c0.56,4.17,0.41,8.37,0.54,12.56c0.04,1.46-0.38,1.89-1.84,1.86c-4.28-0.09-8.56-0.01-12.85-0.04
	c-2.33-0.02-4.63,0.27-6.81,1.06c-5.1,1.83-8.37,5.28-8.82,10.85c-0.46,5.69,1.93,10,6.96,12.66c4.68,2.48,9.65,2.77,14.7,1.22
	c4.51-1.38,7.15-4.62,8.61-9.04c0.19,1.86,0.07,3.64,0.22,5.39c0.16,1.91,1.22,3.1,3.28,3.1c3.17,0.01,6.34,0.03,9.5-0.01
	c0.6-0.01,1.52,0.49,1.74-0.48C199.19,85.98,198.25,86.06,197.62,85.86z M182.83,79.35c-0.83,2.3-2.04,4.33-3.98,5.86
	c-5.38,4.24-11.93,2.08-13.6-4.52c-0.89-3.54-0.94-7.13,0.03-10.67c1.2-4.4,3.83-6.33,8.39-6.35c1.29,0,2.57,0,3.86,0
	c0.43,0,0.86,0,1.29,0c5.48,0,5.44,0,5.51,5.59C184.37,72.72,184,76.09,182.83,79.35z"/>
<path class="st0" d="M292.97,59.25c8.39,0.07,16.79,0.03,25.18,0.03c4.26,0,4.26,0,3.34-4.28c-1.9-8.77-7.4-14.61-15.02-15.96
	c-8.89-1.58-16.98,2-21.82,9.64c-5.75,9.08-5.46,22.34,0.9,31.03c2.73,3.73,6,6.38,9.8,7.8c1.31,0.49,5.49,1.88,10.26,0.93
	c10.93-2.16,15.16-14.64,15.33-15.19c-0.52,1.23-1.39,2.96-2.79,4.78c-1.43,1.85-4.01,5.18-8.62,6.51
	c-2.11,0.61-4.41,0.71-6.93,0.23c-6.32-1.21-9.37-5.85-10.79-11.72c-0.93-3.85-1-7.78-1.07-11.73
	C290.72,59.55,291.37,59.24,292.97,59.25z M291.09,56.64c0.43-4.11,1.08-8.14,3.17-11.79c1.98-3.44,4.9-5.15,8.92-4.79
	c3.88,0.35,6.17,2.72,7.48,6.14c1.28,3.34,1.3,6.86,1.23,10.38c-0.03,1.4-0.79,1.44-1.83,1.43c-2.91-0.03-5.83-0.01-8.74-0.01
	c-2.91,0-5.83-0.01-8.74,0.01C291.61,58.02,290.95,57.96,291.09,56.64z"/>
<path class="st0" d="M150.56,57c-0.04-0.24-0.12-0.75-0.27-1.24c-2.95-9.7-7.07-13.06-7.07-13.06c-1.68-1.36-3.69-2.42-6.13-3.13
	c-8.12-2.37-15.28-0.4-21.11,5.73c-9.4,9.88-8.91,28.11,0.91,37.58c1.05,1.02,6.84,6.47,15.05,5.77
	c7.85-0.67,14.88-6.71,17.93-15.46c-0.45,0.95-1.13,2.22-2.16,3.58c-0.81,1.07-7.54,9.41-15.93,8.16
	c-5.68-0.85-9.74-5.19-11.35-12.1c-0.84-3.61-0.87-7.29-1.02-10.97c-0.09-2.18,0.63-2.65,2.73-2.62c8.82,0.13,17.65,0,26.48,0.09
	c0.42,0,1.54,0.08,1.93-0.54C150.79,58.44,150.71,57.94,150.56,57z M140.6,56.3c-0.02,1.33-0.48,1.78-1.81,1.74
	c-2.91-0.08-5.81-0.01-8.72-0.03c-5.5-0.02-8.26-0.04-8.72,0.02c-0.25,0.03-0.99,0.12-1.39-0.31c-0.36-0.39-0.28-1.04-0.2-1.39
	c0.02-2.73,0.48-6.83,2.82-10.83c0.99-1.69,2.15-3.6,4.5-4.7c1.4-0.65,2.99-0.89,4.79-0.72c4.21,0.41,6.46,3.08,7.7,6.85
	C140.57,49.98,140.65,53.12,140.6,56.3z"/>
<path class="st0" d="M41.15,79.45"/>
<g>
	<path class="st0" d="M25.67,105.18c0.02,1.21,0.79,1.71,1.69,1.71c0.64,0,1.03-0.11,1.37-0.25l0.15,0.64
		c-0.32,0.14-0.86,0.31-1.64,0.31c-1.52,0-2.43-1-2.43-2.49c0-1.49,0.88-2.66,2.31-2.66c1.61,0,2.04,1.42,2.04,2.32
		c0,0.18-0.02,0.33-0.03,0.42H25.67z M28.3,104.54c0.01-0.57-0.23-1.46-1.24-1.46c-0.91,0-1.3,0.84-1.38,1.46H28.3z"/>
	<path class="st0" d="M42.63,107.3c-0.23,0.12-0.75,0.29-1.42,0.29c-1.49,0-2.46-1.01-2.46-2.52c0-1.52,1.04-2.62,2.65-2.62
		c0.53,0,1,0.13,1.24,0.25l-0.2,0.69c-0.21-0.12-0.55-0.23-1.04-0.23c-1.13,0-1.74,0.83-1.74,1.87c0,1.14,0.73,1.84,1.71,1.84
		c0.51,0,0.85-0.13,1.1-0.25L42.63,107.3z"/>
	<path class="st0" d="M56.92,104.98c0,1.83-1.26,2.62-2.46,2.62c-1.33,0-2.36-0.98-2.36-2.54c0-1.65,1.08-2.62,2.45-2.62
		C55.96,102.44,56.92,103.47,56.92,104.98z M53,105.03c0,1.08,0.62,1.9,1.5,1.9c0.86,0,1.5-0.81,1.5-1.92c0-0.84-0.42-1.9-1.48-1.9
		C53.46,103.11,53,104.09,53,105.03z"/>
	<path class="st0" d="M66.76,106.57c0.27,0.17,0.73,0.36,1.18,0.36c0.65,0,0.96-0.33,0.96-0.73c0-0.43-0.25-0.66-0.92-0.91
		c-0.89-0.32-1.3-0.8-1.3-1.4c0-0.8,0.64-1.45,1.7-1.45c0.5,0,0.94,0.14,1.21,0.31l-0.22,0.65c-0.19-0.12-0.55-0.29-1.01-0.29
		c-0.53,0-0.83,0.31-0.83,0.67c0,0.41,0.3,0.59,0.94,0.84c0.86,0.33,1.29,0.75,1.29,1.49c0,0.87-0.67,1.48-1.84,1.48
		c-0.54,0-1.04-0.13-1.39-0.34L66.76,106.57z"/>
	<path class="st0" d="M79.64,106.57c0.27,0.17,0.73,0.36,1.18,0.36c0.65,0,0.96-0.33,0.96-0.73c0-0.43-0.25-0.66-0.92-0.91
		c-0.89-0.32-1.3-0.8-1.3-1.4c0-0.8,0.64-1.45,1.7-1.45c0.5,0,0.94,0.14,1.21,0.31l-0.22,0.65c-0.19-0.12-0.55-0.29-1.01-0.29
		c-0.53,0-0.83,0.31-0.83,0.67c0,0.41,0.3,0.59,0.94,0.84c0.86,0.33,1.29,0.75,1.29,1.49c0,0.87-0.67,1.48-1.85,1.48
		c-0.54,0-1.04-0.13-1.39-0.34L79.64,106.57z"/>
	<path class="st0" d="M93.63,101.17c0.01,0.31-0.21,0.55-0.57,0.55c-0.32,0-0.54-0.24-0.54-0.55c0-0.32,0.23-0.56,0.56-0.56
		C93.42,100.61,93.63,100.85,93.63,101.17z M92.63,107.49v-4.93h0.9v4.93H92.63z"/>
	<path class="st0" d="M103.73,106.57c0.27,0.17,0.73,0.36,1.18,0.36c0.65,0,0.96-0.33,0.96-0.73c0-0.43-0.25-0.66-0.92-0.91
		c-0.89-0.32-1.3-0.8-1.3-1.4c0-0.8,0.64-1.45,1.7-1.45c0.5,0,0.94,0.14,1.21,0.31l-0.22,0.65c-0.19-0.12-0.55-0.29-1.01-0.29
		c-0.53,0-0.83,0.31-0.83,0.67c0,0.41,0.3,0.59,0.94,0.84c0.86,0.33,1.29,0.75,1.29,1.49c0,0.87-0.67,1.48-1.84,1.48
		c-0.54,0-1.04-0.13-1.39-0.34L103.73,106.57z"/>
	<path class="st0" d="M117.8,101.14v1.42h1.28v0.68h-1.28v2.66c0,0.61,0.17,0.96,0.67,0.96c0.23,0,0.41-0.03,0.52-0.06l0.04,0.67
		c-0.17,0.07-0.45,0.12-0.8,0.12c-0.42,0-0.75-0.13-0.97-0.38c-0.25-0.26-0.35-0.7-0.35-1.28v-2.69h-0.76v-0.68h0.76v-1.18
		L117.8,101.14z"/>
	<path class="st0" d="M129.37,105.18c0.02,1.21,0.79,1.71,1.69,1.71c0.64,0,1.03-0.11,1.37-0.25l0.15,0.64
		c-0.32,0.14-0.86,0.31-1.64,0.31c-1.52,0-2.43-1-2.43-2.49c0-1.49,0.88-2.66,2.31-2.66c1.61,0,2.04,1.42,2.04,2.32
		c0,0.18-0.02,0.33-0.03,0.42H129.37z M132,104.54c0.01-0.57-0.23-1.46-1.24-1.46c-0.91,0-1.3,0.84-1.38,1.46H132z"/>
	<path class="st0" d="M142.82,103.89c0-0.51-0.01-0.93-0.04-1.34h0.79l0.04,0.79h0.03c0.27-0.47,0.73-0.91,1.55-0.91
		c0.67,0,1.18,0.41,1.4,0.99h0.02c0.15-0.28,0.35-0.49,0.55-0.64c0.3-0.22,0.62-0.35,1.09-0.35c0.65,0,1.62,0.43,1.62,2.14v2.91
		h-0.88v-2.79c0-0.95-0.35-1.52-1.07-1.52c-0.51,0-0.91,0.38-1.06,0.82c-0.04,0.12-0.07,0.29-0.07,0.45v3.05h-0.88v-2.96
		c0-0.79-0.35-1.36-1.03-1.36c-0.56,0-0.97,0.45-1.11,0.9c-0.05,0.13-0.07,0.29-0.07,0.44v2.98h-0.88V103.89z"/>
	<path class="st0" d="M162.89,107.49l-0.07-0.62h-0.03c-0.28,0.39-0.81,0.73-1.51,0.73c-1,0-1.51-0.7-1.51-1.42
		c0-1.19,1.06-1.84,2.97-1.83v-0.1c0-0.41-0.11-1.14-1.12-1.14c-0.46,0-0.94,0.14-1.28,0.37l-0.2-0.59c0.41-0.26,1-0.44,1.62-0.44
		c1.51,0,1.88,1.03,1.88,2.02v1.84c0,0.43,0.02,0.85,0.08,1.18H162.89z M162.75,104.97c-0.98-0.02-2.09,0.15-2.09,1.11
		c0,0.58,0.39,0.86,0.85,0.86c0.64,0,1.05-0.41,1.19-0.83c0.03-0.09,0.05-0.19,0.05-0.29V104.97z"/>
	<path class="st0" d="M189.16,100.25v5.96c0,0.44,0.01,0.94,0.04,1.27h-0.81l-0.04-0.86h-0.02c-0.28,0.55-0.88,0.97-1.68,0.97
		c-1.19,0-2.11-1.01-2.11-2.51c-0.01-1.64,1.01-2.65,2.21-2.65c0.75,0,1.26,0.36,1.49,0.75h0.02v-2.95H189.16z M188.26,104.56
		c0-0.11-0.01-0.26-0.04-0.38c-0.13-0.57-0.62-1.04-1.29-1.04c-0.93,0-1.48,0.82-1.48,1.91c0,1,0.49,1.83,1.46,1.83
		c0.6,0,1.15-0.4,1.31-1.07c0.03-0.12,0.04-0.25,0.04-0.39V104.56z"/>
	<path class="st0" d="M199.99,105.18c0.02,1.21,0.79,1.71,1.69,1.71c0.64,0,1.03-0.11,1.37-0.25l0.15,0.64
		c-0.32,0.14-0.86,0.31-1.64,0.31c-1.52,0-2.43-1-2.43-2.49c0-1.49,0.88-2.66,2.31-2.66c1.61,0,2.04,1.42,2.04,2.32
		c0,0.18-0.02,0.33-0.03,0.42H199.99z M202.62,104.54c0.01-0.57-0.23-1.46-1.24-1.46c-0.91,0-1.3,0.84-1.38,1.46H202.62z"/>
	<path class="st0" d="M224.92,105.18c0.02,1.21,0.79,1.71,1.69,1.71c0.64,0,1.03-0.11,1.37-0.25l0.15,0.64
		c-0.32,0.14-0.86,0.31-1.64,0.31c-1.52,0-2.43-1-2.43-2.49c0-1.49,0.88-2.66,2.31-2.66c1.61,0,2.04,1.42,2.04,2.32
		c0,0.18-0.02,0.33-0.03,0.42H224.92z M227.55,104.54c0.01-0.57-0.23-1.46-1.24-1.46c-0.91,0-1.3,0.84-1.38,1.46H227.55z"/>
	<path class="st0" d="M238.76,102.55l0.7,1.06c0.18,0.28,0.34,0.53,0.5,0.8h0.03c0.16-0.29,0.33-0.55,0.49-0.82l0.69-1.05h0.97
		l-1.68,2.39l1.73,2.55h-1.02l-0.72-1.11c-0.19-0.29-0.36-0.56-0.53-0.86h-0.02c-0.16,0.29-0.34,0.56-0.52,0.86l-0.71,1.11h-0.99
		l1.75-2.52l-1.67-2.42H238.76z"/>
	<path class="st0" d="M251.89,104.16c0-0.63-0.02-1.14-0.04-1.61h0.81l0.04,0.85h0.02c0.37-0.6,0.95-0.96,1.75-0.96
		c1.19,0,2.09,1.01,2.09,2.51c0,1.77-1.08,2.65-2.24,2.65c-0.65,0-1.22-0.29-1.52-0.77h-0.02v2.68h-0.89V104.16z M252.78,105.48
		c0,0.13,0.02,0.25,0.04,0.37c0.16,0.62,0.7,1.05,1.35,1.05c0.95,0,1.5-0.78,1.5-1.91c0-0.99-0.52-1.83-1.47-1.83
		c-0.61,0-1.18,0.44-1.36,1.11c-0.03,0.11-0.06,0.24-0.06,0.37V105.48z"/>
	<path class="st0" d="M267.03,105.18c0.02,1.21,0.8,1.71,1.69,1.71c0.64,0,1.03-0.11,1.37-0.25l0.15,0.64
		c-0.32,0.14-0.86,0.31-1.64,0.31c-1.52,0-2.43-1-2.43-2.49c0-1.49,0.88-2.66,2.31-2.66c1.61,0,2.04,1.42,2.04,2.32
		c0,0.18-0.02,0.33-0.03,0.42H267.03z M269.66,104.54c0.01-0.57-0.23-1.46-1.24-1.46c-0.91,0-1.3,0.84-1.38,1.46H269.66z"/>
	<path class="st0" d="M280.47,104.09c0-0.58-0.01-1.08-0.04-1.54h0.79l0.03,0.97h0.04c0.22-0.66,0.76-1.08,1.37-1.08
		c0.1,0,0.17,0.01,0.25,0.03v0.85c-0.09-0.02-0.18-0.03-0.31-0.03c-0.63,0-1.08,0.48-1.2,1.15c-0.02,0.12-0.04,0.27-0.04,0.42v2.63
		h-0.89V104.09z"/>
	<path class="st0" d="M293.68,101.17c0.01,0.31-0.21,0.55-0.57,0.55c-0.32,0-0.54-0.24-0.54-0.55c0-0.32,0.23-0.56,0.56-0.56
		C293.47,100.61,293.68,100.85,293.68,101.17z M292.68,107.49v-4.93h0.9v4.93H292.68z"/>
	<path class="st0" d="M304.4,105.18c0.02,1.21,0.79,1.71,1.69,1.71c0.64,0,1.03-0.11,1.37-0.25l0.15,0.64
		c-0.32,0.14-0.86,0.31-1.64,0.31c-1.52,0-2.43-1-2.43-2.49c0-1.49,0.88-2.66,2.31-2.66c1.61,0,2.04,1.42,2.04,2.32
		c0,0.18-0.02,0.33-0.03,0.42H304.4z M307.03,104.54c0.01-0.57-0.23-1.46-1.24-1.46c-0.91,0-1.3,0.84-1.38,1.46H307.03z
		 M306.14,100.42l0.98,1.46h-0.68l-0.59-0.97h-0.02l-0.59,0.97h-0.67l0.97-1.46H306.14z"/>
	<path class="st0" d="M317.85,103.89c0-0.51-0.01-0.93-0.04-1.34h0.79l0.05,0.82h0.02c0.25-0.47,0.82-0.93,1.63-0.93
		c0.68,0,1.74,0.41,1.74,2.1v2.95h-0.9v-2.84c0-0.79-0.3-1.46-1.14-1.46c-0.59,0-1.05,0.42-1.2,0.92c-0.04,0.11-0.06,0.26-0.06,0.42
		v2.97h-0.9V103.89z"/>
	<path class="st0" d="M335.86,107.3c-0.23,0.12-0.75,0.29-1.42,0.29c-1.49,0-2.46-1.01-2.46-2.52c0-1.52,1.04-2.62,2.65-2.62
		c0.53,0,1,0.13,1.24,0.25l-0.2,0.69c-0.21-0.12-0.55-0.23-1.04-0.23c-1.13,0-1.74,0.83-1.74,1.87c0,1.14,0.73,1.84,1.71,1.84
		c0.51,0,0.85-0.13,1.1-0.25L335.86,107.3z"/>
	<path class="st0" d="M346.74,101.17c0.01,0.31-0.21,0.55-0.57,0.55c-0.32,0-0.54-0.24-0.54-0.55c0-0.32,0.23-0.56,0.56-0.56
		C346.53,100.61,346.74,100.85,346.74,101.17z M345.74,107.49v-4.93h0.9v4.93H345.74z"/>
	<path class="st0" d="M359.7,107.49l-0.07-0.62h-0.03c-0.28,0.39-0.81,0.73-1.51,0.73c-1,0-1.51-0.7-1.51-1.42
		c0-1.19,1.06-1.84,2.97-1.83v-0.1c0-0.41-0.11-1.14-1.12-1.14c-0.46,0-0.94,0.14-1.29,0.37l-0.2-0.59c0.41-0.26,1-0.44,1.62-0.44
		c1.51,0,1.88,1.03,1.88,2.02v1.84c0,0.43,0.02,0.85,0.08,1.18H359.7z M359.56,104.97c-0.98-0.02-2.09,0.15-2.09,1.11
		c0,0.58,0.39,0.86,0.85,0.86c0.64,0,1.05-0.41,1.19-0.83c0.03-0.09,0.05-0.19,0.05-0.29V104.97z"/>
	<path class="st0" d="M370.59,106.57c0.26,0.17,0.73,0.36,1.18,0.36c0.65,0,0.96-0.33,0.96-0.73c0-0.43-0.25-0.66-0.92-0.91
		c-0.89-0.32-1.3-0.8-1.3-1.4c0-0.8,0.64-1.45,1.7-1.45c0.5,0,0.94,0.14,1.21,0.31l-0.22,0.65c-0.19-0.12-0.55-0.29-1.01-0.29
		c-0.53,0-0.83,0.31-0.83,0.67c0,0.41,0.3,0.59,0.94,0.84c0.86,0.33,1.29,0.75,1.29,1.49c0,0.87-0.67,1.48-1.84,1.48
		c-0.54,0-1.04-0.13-1.39-0.34L370.59,106.57z"/>
</g>
</svg>
