<?xml version="1.0" encoding="utf-8"?>
<!-- Generator: Adobe Illustrator 26.2.1, SVG Export Plug-In . SVG Version: 6.00 Build 0)  -->
<svg version="1.1" id="Camada_1" xmlns="http://www.w3.org/2000/svg" xmlns:xlink="http://www.w3.org/1999/xlink" x="0px" y="0px"
	 viewBox="0 0 384.17 97.53" style="enable-background:new 0 0 384.17 97.53;" xml:space="preserve">
<style type="text/css">
	.st0{fill:#FFFFFF;}
</style>
<g id="V4_COMPANY.COM_2">
	<g>
		<path class="st0" d="M65.78,31.54L43.74,53.69c-0.3,0.3,0.39,0.82,0.34,0.82l22.07-0.03c0.27,0,0.48-0.22,0.48-0.48L66.6,31.88
			C66.61,31.45,66.09,31.81,65.78,31.54z M135.7,59.61l0.01,9.36c0.01,4.68-2.05,6.36-5.31,6.37c-3.27,0-5.32-1.68-5.33-6.35
			l0.24-35.21c-0.06-4.83,1.76-6.61,5.03-6.62c3.27,0,5.36,1.77,5.41,6.48l0.09,6.98l9.54-0.01l-0.01-6.36
			c-0.01-10.48-5.25-16.46-15.33-16.45c-10.08,0.01-15.13,6.01-14.99,16.52l-0.13,34.02c-0.1,10.48,5.13,16.46,15.64,16.45
			c9.81,0.08,15.05-6.01,14.92-16.49l-0.08-8.7L135.7,59.61z M95.45,71.05l-13.29-0.36c-0.49,0-0.56,0.2-0.56,0.17l0.02,14.3
			c0,0.1-0.08,0.17-0.17,0.17l-15.16,0.02c-0.1,0-0.17-0.08-0.17-0.17l-0.02-14.3c0,0.2-0.08-0.17-0.17-0.17L21.8,70.87
			c-0.57,0.01-0.72-0.27-0.72-0.45l-0.09-13.26c0-0.05-0.02-0.1,0.41-0.14c-0.32-0.11-0.62-1.67,0.62-2.92L66.13,9.76
			c0.03,0.03,0.08-0.05,0.12-0.05l14.33-0.02c0.02,0,0.05,0,0.07,0.01c0.19,0.08,1.24,0.52,1.25,2.2l0.55,42.7
			c0,0.01-0.57,0.66-0.48,0.66l13.31-0.18c0.1,0,0.17-0.49,0.17-0.59l-0.05-42.2c0-6.33-5.39-12.3-12.29-12.29L21.09,0.08
			c-0.1,0-0.06,0.08-0.06,0.17l-0.07,34.22c0-0.02,0.34,0.05,0.3-0.06L46.41,9.39c0.03,0.41,0.08,0.22,0.58,0.22l12.65-0.17
			c0.72,0,0.23-0.05,0.42,0.19L18.88,51.27c-0.01,0.02-0.01,0.03-0.01,0.04c-0.01-0.01-0.01-0.02-0.04-0.04l-7.79-7.7
			c-0.14-0.03-0.16-0.08-0.16-0.12L10.83,0.38C4.63,0.99-0.01,6.14,0,12.31l0.09,72.92C0.1,92,5.63,97.53,12.39,97.52l71.15-0.09
			c6.45-0.01,11.97-5.56,11.96-12.33l-0.02-14.27C95.48,70.75,95.4,71.05,95.45,71.05z M10.82,0.31c0.01,0.01,0.01,0.03,0.01,0.06
			v0.01c0.02,0,0.03-0.01,0.05-0.01C10.85,0.34,10.83,0.32,10.82,0.31z M281.73,18.35l-10.86,65.53l9.43-0.04l1.76-11.88l12.72-0.02
			l1.66,11.88l10.36-0.01l-10.54-65.48L281.73,18.35z M283.35,63.07l4.9-33.13l4.99,33.11L283.35,63.07z M334.81,18.28l0.05,39.28
			l-10.6-39.26l-12.88,0.02l0.08,65.49l9.24-0.01l-0.06-46.96l12.85,46.95l10.55-0.01l-0.08-65.49L334.81,18.28z M384.17,18.22
			L375,18.23l-8.42,30.33l-7.88-30.31l-10.23,0.01L361,62.13l0.03,21.61l10.27-0.01l-0.03-21.16L384.17,18.22z M166.35,17.75
			c-10.08,0.01-15.58,6.01-15.56,16.49l0.04,34.05c0.01,10.48,5.53,17.08,15.61,16.95c10.08-0.13,15.58-6.51,15.57-16.99
			l-0.04-34.05C182.13,23.72,176.43,17.74,166.35,17.75z M166.42,75.38c-2.98,0-5.32-1.77-5.33-6.45l-0.05-35.36
			c-0.01-4.68,2.05-6.46,5.31-6.46c3.27,0,5.32,1.77,5.33,6.45l0.21,35.36C171.74,73.6,169.82,75.38,166.42,75.38z M217.36,18.43
			l-6.99,46.95l-7.38-46.93l-14.52,0.02l0.08,65.59l8.96-0.12l-0.06-46.31l7.71,46.3l9.71-0.01l7.03-46.98l0.06,46.97l9.71-0.01
			l-0.08-65.49L217.36,18.43z M254.17,18.39l-15.12,0.02l0.08,65.49l10.27-0.01l-0.03-24.61l4.85-0.01
			c10.4-0.01,15.95-5.73,15.81-16.2l-0.1-8.51C269.67,24.07,264.44,18.47,254.17,18.39z M254.21,49.91l-4.85,0.01l-0.03-22.17
			l4.85-0.01c3.32,0,5.41,1.49,5.47,6.17l0.12,9.82C259.84,48.41,257.48,49.91,254.21,49.91z"/>
	</g>
</g>
</svg>
