<?xml version="1.0" encoding="utf-8"?>
<!-- Generator: Adobe Illustrator 26.2.1, SVG Export Plug-In . SVG Version: 6.00 Build 0)  -->
<svg version="1.1" id="Camada_1" xmlns="http://www.w3.org/2000/svg" xmlns:xlink="http://www.w3.org/1999/xlink" x="0px" y="0px"
	 viewBox="0 0 169.98 57.91" style="enable-background:new 0 0 169.98 57.91;" xml:space="preserve">
<style type="text/css">
	.st0{fill:#FFFFFF;}
	.st1{fill-rule:evenodd;clip-rule:evenodd;fill:#FFFFFF;}
</style>
<g>
	<path class="st0" d="M33.87,19.26c0.82-8.79-4.09-16.78-12.89-18.85C20.52,0.3,19.93,0.51,19.56,0c-1.61,0-3.21,0-4.82,0
		c-0.15,0.14-0.33,0.15-0.52,0.15C6.73,0.13-0.06,8.31,0.15,14.66c0,0,0,0,0,0C0.1,14.67,0.05,14.68,0,14.69c0,0.47,0,0.94,0,1.41
		c0,1.41,0,2.82,0,4.24c0.31,0.17,0.24,0.48,0.29,0.74c1.86,10.47,12.08,16.61,22.19,13.18C29.59,31.84,33.19,26.54,33.87,19.26z
		 M2.55,17.6c0-8.66,6.11-15.07,14.38-15.09c8.28-0.02,14.43,6.36,14.48,15c0.04,8.72-6.1,15.16-14.46,15.15
		C8.64,32.65,2.56,26.29,2.55,17.6z"/>
	<path class="st0" d="M108.51,0.34c0.03-0.11,0.06-0.23,0.08-0.34c-1.13,0-2.27,0-3.4,0c0.01,0.11,0.03,0.21,0.04,0.32
		c-0.01,7.34,0.09,14.68-0.07,22.02c-0.2,9.04-9.03,11.34-14.43,8.51c-3.54-1.85-5.05-4.96-5.08-8.8
		C85.59,14.8,85.61,7.55,85.6,0.31c-2.07-0.01-4.29-0.05-6.36-0.07c0,0-0.01,0.37-0.01,0.55C79.22,7.89,79.11,15,79.25,22.1
		c0.13,6.65,3.99,11.12,10.49,12.53c2.57,0.55,5.16,0.48,7.75,0.11c6.61-0.95,10.92-5.53,11.03-12.09
		C108.64,15.21,108.52,7.78,108.51,0.34z"/>
	<path class="st0" d="M134.29,15.97c-0.23-5.89-4.99-8.83-10.55-6.82c-1.66,0.6-3.13,1.53-4.46,2.67c-0.31,0.26-0.61,0.54-1.15,1.02
		c0-1.03-0.06-1.77,0.01-2.49c0.1-1.01-0.16-1.46-1.29-1.36c-1.12,0.11-2.27,0.09-3.4,0c-0.98-0.07-1.27,0.21-1.26,1.22
		c0.05,5.6,0.03,11.2,0.03,16.81c0,2.26,0.05,4.52-0.02,6.78c-0.03,1.01,0.29,1.31,1.27,1.23c1.03-0.08,2.09-0.1,3.12,0
		c1.2,0.12,1.61-0.19,1.59-1.5c-0.09-4.71,0.2-9.43-0.12-14.12c-0.21-2.94,1.13-4.36,3.4-5.57c4.34-2.31,6.96-0.79,6.97,4.12
		c0,5.32,0.02,10.64-0.02,15.96c-0.01,0.84,0.18,1.17,1.09,1.11c1.32-0.08,2.65-0.04,3.97-0.01c0.63,0.02,0.94-0.12,0.93-0.84
		C134.35,28.11,134.53,22.03,134.29,15.97z"/>
	<path class="st0" d="M169.24,23.94c-1.11-0.56-1.67-0.4-1.99,0.83c-0.15,0.58-0.5,1.11-0.8,1.64c-2.8,5.01-9.17,5.42-12.5,0.75
		c-2.31-3.23-2.97-6.89-2.15-10.74c0.75-3.56,3.47-5.72,6.78-5.65c2.4,0.05,3.49,1.03,3.59,3.4c0.07,1.59,0.74,2.71,2.22,3.27
		c1.44,0.55,3.38-0.06,4.35-1.28c0.82-1.03,0.85-2.58,0.05-3.98c-0.91-1.59-2.35-2.53-4.01-3.18c-9.29-3.69-18.92,2.82-19.01,12.98
		c-0.06,0.8,0.1,1.73,0.27,2.66c1.31,7.35,8.98,12.13,15.83,9.81c4.44-1.5,6.67-4.96,8.02-9.19
		C170.14,24.48,169.91,24.28,169.24,23.94z"/>
	<path class="st0" d="M74.53,31.25c-0.68-0.13-0.73,0.55-0.83,1.06c-0.48,2.46-1.2,4.84-2.41,7.04
		c-4.86,8.82-12.21,14.2-22.39,14.85c-10.82,0.68-19.51-3.43-25.44-12.71c-0.57-0.89-1.27-1.35-2.3-1.35c-0.85,0-1.7-0.05-2.55,0.02
		c-1.25,0.11-1.54,0.67-0.99,1.8c0.16,0.34,0.35,0.66,0.55,0.98c6.23,9.91,15.44,14.5,25.01,14.97
		c10.92,0.01,19.26-3.77,25.11-10.58c3.68-4.29,5.87-9.26,6.6-14.86C74.95,32.03,75.12,31.36,74.53,31.25z"/>
	<path class="st0" d="M53.19,35.59c3.11,0.18,5.72-0.87,7.96-3.36c0.24,2.89,0.24,2.85,2.05,2.8c0.78-0.02,0.77-0.3,0.68-0.93
		c-0.29-2.05-0.4-4.12-0.37-6.19c0.03-2.73,0.06-5.46-0.02-8.19c-0.08-2.85-1.05-5.32-3.81-6.6c-3.68-1.71-7.24-1.19-10.65,0.89
		c-0.77,0.47-0.48,0.91-0.06,1.32c0.4,0.39,0.43,1.57,1.5,0.77c0.84-0.63,1.79-1.04,2.81-1.29c3.81-0.95,6.93,0.73,7.57,4.07
		c0.43,2.24,0.33,2.34-1.93,2.38c-2.83,0.06-5.68,0.11-8.32,1.35c-2,0.94-3.59,2.27-4.11,4.54C45.47,31.62,48.41,35.31,53.19,35.59z
		 M50.08,25.88c1.22-1.15,2.76-1.6,4.36-1.84c1.3-0.19,2.62-0.37,3.74-0.3c3.14-0.04,3.15-0.03,2.67,2.94
		c-0.21,1.31-0.55,2.57-1.3,3.69c-1.84,2.75-5.99,3.68-8.82,1.96C48.51,30.97,48.17,27.67,50.08,25.88z"/>
	<path class="st0" d="M143.11,8.45c-1.08-0.48-4.67,0.51-5.42,1.5c-0.19,0.25-0.16,0.53-0.16,0.8c0,7.81,0.01,15.61-0.02,23.42
		c0,0.69,0.23,0.89,0.89,0.86c1.27-0.04,2.55-0.08,3.82,0.01c1,0.07,1.27-0.25,1.25-1.24c-0.06-4-0.02-7.99-0.02-11.99
		c0-4.09,0.01-8.18-0.01-12.27C143.44,9.17,143.68,8.7,143.11,8.45z"/>
	<path class="st0" d="M68.46,35.01c0.66,0.03,1.27,0.14,1.27-0.94c-0.05-11.24-0.05-22.48-0.06-33.73
		c-0.82-0.02-1.64-0.03-2.46-0.05c-0.02,11.29-0.04,22.57-0.09,33.86C67.12,35.3,67.86,34.98,68.46,35.01z"/>
	<path class="st0" d="M36.23,33.74c0.01,1.09,0.33,1.28,1.35,1.31c1.15,0.04,1.29-0.41,1.27-1.39c-0.05-3.48-0.03-6.96-0.02-10.45
		c0.01-2.01,0.44-3.93,1.49-5.66c1.02-1.69,2.44-2.93,4.54-2.91c1.42,0.01,0.92-0.95,1.01-1.64c0.14-0.98-0.52-0.91-1.16-0.87
		c-2.39,0.14-4.29,1.24-6.05,3.28c-0.04-0.86-0.07-1.37-0.09-1.88c-0.07-1.46-1.18-0.63-1.82-0.79c-0.79-0.19-0.78,0.38-0.74,0.94
		C36.49,20.38,36.19,27.06,36.23,33.74z"/>
	<path class="st0" d="M141.22,0.25c-0.03-0.08-0.03-0.16-0.02-0.25c-0.47,0-0.95,0-1.42,0c-0.02,0.08-0.03,0.15-0.03,0.23
		c-2.01,0.34-3.21,2.92-1.73,4.73c0.85,1.04,2.15,1.42,3.41,0.99c1.23-0.42,2.03-1.47,2.06-2.73
		C143.55,1.82,142.88,0.94,141.22,0.25z"/>
	<path class="st0" d="M111.1,43.83c0.06-1.12,0.02-2.25,0.01-3.38c0-0.28,0.01-0.61-0.38-0.63c-0.4-0.02-0.4,0.32-0.4,0.6
		c0,1.22,0,2.43,0,3.65c-0.09,0.02-0.17,0.04-0.26,0.06c-0.88-1.27-1.76-2.53-2.63-3.81c-0.22-0.32-0.44-0.6-0.9-0.53
		c-0.57,0.09-0.42,0.54-0.43,0.88c-0.01,1.36-0.01,2.72,0,4.09c0,0.32-0.05,0.75,0.41,0.75c0.5-0.01,0.34-0.47,0.35-0.76
		c0.02-1.18,0.01-2.36,0.01-3.54c0.96,1.03,1.65,2.09,2.42,3.09c0.39,0.51,0.56,1.54,1.48,1.18
		C111.47,45.22,111.07,44.4,111.1,43.83z"/>
	<path class="st0" d="M165.93,42.76c0.12,0.06,0.24,0.19,0.35,0.18c0.81-0.08,1.01,0.3,1.01,1.06c0,0.79-0.42,0.94-1.03,1.01
		c-1.01,0.11-1.89-0.12-2.41-1.06c-0.55-0.99-0.51-2,0.22-2.89c0.68-0.83,1.61-0.87,2.58-0.6c0.35,0.1,0.79,0.71,1.01,0.03
		c0.16-0.49-0.45-0.59-0.83-0.71c-1.27-0.41-2.65-0.03-3.45,0.94c-0.8,0.98-0.88,2.61-0.17,3.69c0.71,1.08,2.06,1.56,3.49,1.24
		c1.19-0.26,1.76-1.39,1.21-2.86C167.52,41.79,166.64,42.46,165.93,42.76z"/>
	<path class="st0" d="M158.21,40.42c0-0.22,0.04-0.52-0.25-0.56c-0.41-0.06-0.41,0.28-0.41,0.56c-0.01,1.21,0,2.43,0,3.77
		c-0.53-0.18-0.63-0.52-0.82-0.78c-0.73-1.04-1.45-2.08-2.17-3.12c-0.23-0.33-0.48-0.59-0.92-0.46c-0.45,0.14-0.29,0.54-0.29,0.83
		c-0.02,1.31-0.02,2.63,0,3.94c0.01,0.31-0.21,0.9,0.36,0.86c0.5-0.04,0.27-0.61,0.28-0.94c0.03-1.1,0.01-2.21,0.01-3.64
		c0.47,0.62,0.76,0.96,1.01,1.33c0.67,0.96,1.34,1.93,2,2.9c0.21,0.31,0.45,0.46,0.82,0.42c0.5-0.06,0.39-0.45,0.39-0.75
		C158.22,43.34,158.22,41.88,158.21,40.42z"/>
	<path class="st0" d="M129.09,39.86c-0.54,0.03-0.36,0.61-0.31,0.92c0.18,1.21-0.32,1.47-1.48,1.47c-1.18-0.01-1.83-0.22-1.57-1.54
		c0.02-0.09,0.01-0.19,0-0.28c-0.02-0.27,0.03-0.62-0.4-0.58c-0.33,0.03-0.28,0.32-0.29,0.54c-0.01,0.75,0,1.51,0,2.26
		c0,0.42-0.07,0.86,0.02,1.27c0.11,0.53-0.44,1.47,0.37,1.51c0.57,0.03,0.21-0.94,0.31-1.45c0.08-0.41-0.23-1.04,0.56-1.05
		c0.75-0.01,1.6-0.18,2.23,0.1c0.55,0.25,0.16,1.11,0.24,1.69c0.04,0.3-0.12,0.78,0.35,0.78c0.57,0,0.41-0.53,0.41-0.87
		c0.02-1.27,0.03-2.54-0.01-3.81C129.51,40.47,129.78,39.83,129.09,39.86z"/>
	<path class="st0" d="M91.11,43.08c1.3-0.92,1.62-1.64,1.13-2.49c-0.37-0.65-2.44-1.13-3.25-0.77c-0.19,0.08-0.3,0.2-0.3,0.41
		c0,1.64,0,3.28,0.01,4.92c0,0.2,0.09,0.36,0.33,0.36c0.26,0,0.29-0.2,0.29-0.38c0.02-0.51,0-1.03,0.02-1.55
		c0.01-0.21-0.08-0.49,0.24-0.57c0.29-0.07,0.58-0.04,0.75,0.23c0.33,0.51,0.63,1.04,0.96,1.55c0.24,0.37,0.36,0.92,1.2,0.64
		c-0.24-0.43-0.44-0.79-0.65-1.15C91.6,43.88,91.35,43.48,91.11,43.08z M90.18,42.34c-0.89,0.17-0.84-0.4-0.88-1
		c-0.04-0.72,0.18-1.03,0.93-0.94c0.67,0.08,1.4,0.09,1.37,1C91.59,42.32,90.81,42.27,90.18,42.34z"/>
	<path class="st0" d="M99.8,40.33c-0.23-0.55-0.71-0.84-1.01-0.24c-0.82,1.63-1.49,3.34-2.22,5.01c-0.14,0.32,0.01,0.42,0.34,0.45
		c0.08-0.05,0.28-0.09,0.3-0.18c0.27-0.95,0.84-1.28,1.86-1.25c0.97,0.03,1.76,0.06,2.03,1.18c0.05,0.21,0.36,0.33,0.59,0.18
		c0.26-0.17,0.11-0.42,0.02-0.62C101.07,43.35,100.43,41.84,99.8,40.33z M98.04,43.47c0.37-0.88,0.69-1.67,1.06-2.55
		c0.65,0.74,0.81,1.61,1.17,2.55C99.47,43.47,98.86,43.47,98.04,43.47z"/>
	<path class="st0" d="M141.86,42.4c-0.22-0.08-0.44-0.16-0.66-0.24c-0.53-0.18-0.97-0.47-0.82-1.11c0.17-0.7,0.76-0.76,1.35-0.69
		c0.27,0.03,0.51,0.19,0.78,0.28c0.21,0.07,0.34-0.06,0.46-0.22c0.12-0.16,0.03-0.27-0.07-0.35c-0.6-0.46-1.26-0.58-1.99-0.37
		c-0.76,0.21-1.25,0.68-1.34,1.45c-0.08,0.66,0.2,1.2,0.82,1.5c0.46,0.22,0.96,0.38,1.43,0.58c0.43,0.18,0.71,0.49,0.62,0.98
		c-0.09,0.54-0.51,0.79-1.01,0.82c-0.31,0.02-0.66-0.05-0.95-0.18c-0.29-0.13-0.6-0.47-0.83-0.06c-0.28,0.51,0.26,0.6,0.57,0.74
		c0.29,0.13,0.62,0.19,0.86,0.25c1.03-0.09,1.9-0.31,2.12-1.39C143.42,43.31,142.81,42.73,141.86,42.4z"/>
	<path class="st0" d="M119.64,44.73c-0.88,0.48-1.72,0.45-2.49-0.19c-0.9-0.75-1.07-2.16-0.42-3.21c0.62-1.01,1.54-1.26,2.8-0.69
		c0.32,0.14,0.63,0.38,0.82-0.02c0.2-0.4-0.26-0.55-0.5-0.68c-0.94-0.48-1.9-0.47-2.83,0.07c-1.04,0.61-1.44,1.56-1.44,2.72
		c0.01,1.15,0.51,2.08,1.41,2.59c0.97,0.56,1.98,0.59,2.96,0.04c0.27-0.15,0.83-0.32,0.49-0.81
		C120.14,44.12,119.89,44.6,119.64,44.73z"/>
	<path class="st0" d="M82.08,42.35c-0.88,0.01-0.64-0.59-0.68-1.07c-0.04-0.52,0.02-0.89,0.72-0.89c0.7,0.01,1.44,0.18,2.11-0.14
		c-0.01-0.15-0.01-0.31-0.02-0.46c-0.88,0-1.75,0.04-2.63-0.01c-0.7-0.04-0.89,0.24-0.87,0.89c0.04,1.17-0.02,2.34,0.03,3.51
		c0.02,0.44-0.3,1.24,0.38,1.24c0.53,0,0.3-0.79,0.26-1.19c-0.13-1.08,0.29-1.42,1.34-1.3c0.45,0.05,1,0.18,1.55-0.4
		C83.44,42.22,82.74,42.34,82.08,42.35z"/>
	<path class="st0" d="M148.51,40.3c0-0.26-0.1-0.47-0.39-0.47c-0.3,0.01-0.35,0.25-0.36,0.49c0,1.55,0,3.1,0,4.64
		c0,0.23,0.01,0.51,0.31,0.53c0.38,0.03,0.44-0.26,0.44-0.56c0-0.75,0-1.5,0-2.25c0,0,0,0-0.01,0
		C148.51,41.89,148.51,41.1,148.51,40.3z"/>
	<path class="st0" d="M134.99,40.31c0-0.23-0.03-0.49-0.36-0.46c-0.23,0.02-0.28,0.22-0.28,0.41c-0.01,1.59-0.01,3.18,0,4.77
		c0,0.23,0.04,0.5,0.37,0.45c0.31-0.04,0.27-0.33,0.28-0.55c0.01-0.75,0-1.5,0-2.25C134.99,41.9,135,41.11,134.99,40.31z"/>
</g>
</svg>
